# Blender 4.5.2 LTS
# www.blender.org
o Roundcube
v 0.288675 -0.288675 -0.288675
v 0.144338 -0.338502 -0.338502
v 0.000000 -0.353553 -0.353553
v -0.144338 -0.338502 -0.338502
v 0.338502 -0.144338 -0.338502
v 0.169251 -0.169251 -0.438986
v 0.000000 -0.176777 -0.467707
v -0.169251 -0.169251 -0.438986
v 0.353553 0.000000 -0.353553
v 0.176777 0.000000 -0.467707
v 0.000000 0.000000 -0.500000
v -0.176777 0.000000 -0.467707
v 0.338502 0.144338 -0.338502
v 0.169251 0.169251 -0.438986
v 0.000000 0.176777 -0.467707
v -0.169251 0.169251 -0.438986
v -0.288675 -0.288675 -0.288675
v -0.338502 -0.338502 -0.144338
v -0.353553 -0.353553 0.000000
v -0.338502 -0.338502 0.144338
v -0.338502 -0.144338 -0.338502
v -0.438986 -0.169251 -0.169251
v -0.467707 -0.176777 0.000000
v -0.438986 -0.169251 0.169251
v -0.353553 0.000000 -0.353553
v -0.467707 0.000000 -0.176777
v -0.500000 0.000000 0.000000
v -0.467707 0.000000 0.176777
v -0.338502 0.144338 -0.338502
v -0.438986 0.169251 -0.169251
v -0.467707 0.176777 0.000000
v -0.438986 0.169251 0.169251
v -0.288675 -0.288675 0.288675
v -0.144338 -0.338502 0.338502
v 0.000000 -0.353553 0.353553
v 0.144338 -0.338502 0.338502
v -0.338502 -0.144338 0.338502
v -0.169251 -0.169251 0.438986
v 0.000000 -0.176777 0.467707
v 0.169251 -0.169251 0.438986
v -0.353553 0.000000 0.353553
v -0.176777 0.000000 0.467707
v 0.000000 0.000000 0.500000
v 0.176777 0.000000 0.467707
v -0.338502 0.144338 0.338502
v -0.169251 0.169251 0.438986
v 0.000000 0.176777 0.467707
v 0.169251 0.169251 0.438986
v 0.288675 -0.288675 0.288675
v 0.338502 -0.338502 0.144338
v 0.353553 -0.353553 0.000000
v 0.338502 -0.338502 -0.144338
v 0.338502 -0.144338 0.338502
v 0.438986 -0.169251 0.169251
v 0.467707 -0.176777 0.000000
v 0.438986 -0.169251 -0.169251
v 0.353553 0.000000 0.353553
v 0.467707 0.000000 0.176777
v 0.500000 0.000000 0.000000
v 0.467707 0.000000 -0.176777
v 0.338502 0.144338 0.338502
v 0.438986 0.169251 0.169251
v 0.467707 0.176777 0.000000
v 0.438986 0.169251 -0.169251
v 0.169251 -0.438986 0.169251
v 0.000000 -0.467707 0.176777
v -0.169251 -0.438986 0.169251
v 0.176777 -0.467707 0.000000
v 0.000000 -0.500000 0.000000
v -0.176777 -0.467707 0.000000
v 0.169251 -0.438986 -0.169251
v 0.000000 -0.467707 -0.176777
v -0.169251 -0.438986 -0.169251
v 0.288675 0.288675 -0.288675
v 0.144338 0.338502 -0.338502
v 0.000000 0.353553 -0.353553
v -0.144338 0.338502 -0.338502
v -0.288675 0.288675 -0.288675
v 0.338502 0.338502 -0.144338
v 0.169251 0.438986 -0.169251
v 0.000000 0.467707 -0.176777
v -0.169251 0.438986 -0.169251
v -0.338502 0.338502 -0.144338
v 0.353553 0.353553 0.000000
v 0.176777 0.467707 0.000000
v 0.000000 0.500000 0.000000
v -0.176777 0.467707 0.000000
v -0.353553 0.353553 0.000000
v 0.338502 0.338502 0.144338
v 0.169251 0.438986 0.169251
v 0.000000 0.467707 0.176777
v -0.169251 0.438986 0.169251
v -0.338502 0.338502 0.144338
v 0.288675 0.288675 0.288675
v 0.144338 0.338502 0.338502
v 0.000000 0.353553 0.353553
v -0.144338 0.338502 0.338502
v -0.288675 0.288675 0.288675
vn 0.5774 -0.5774 -0.5774
vn 0.3036 -0.6737 -0.6737
vn -0.0000 -0.7071 -0.7071
vn -0.3036 -0.6737 -0.6737
vn 0.6737 -0.3036 -0.6737
vn 0.3403 -0.3403 -0.8766
vn -0.0000 -0.3610 -0.9326
vn -0.3403 -0.3403 -0.8766
vn 0.7071 -0.0000 -0.7071
vn 0.3610 -0.0000 -0.9326
vn -0.0000 -0.0000 -1.0000
vn -0.3610 -0.0000 -0.9326
vn 0.6737 0.3036 -0.6737
vn 0.3403 0.3403 -0.8766
vn -0.0000 0.3610 -0.9326
vn -0.3403 0.3403 -0.8766
vn -0.5774 -0.5774 -0.5774
vn -0.6737 -0.6737 -0.3036
vn -0.7071 -0.7071 -0.0000
vn -0.6737 -0.6737 0.3036
vn -0.6737 -0.3036 -0.6737
vn -0.8766 -0.3403 -0.3403
vn -0.9326 -0.3610 -0.0000
vn -0.8766 -0.3403 0.3403
vn -0.7071 -0.0000 -0.7071
vn -0.9326 -0.0000 -0.3610
vn -1.0000 -0.0000 -0.0000
vn -0.9326 -0.0000 0.3610
vn -0.6737 0.3036 -0.6737
vn -0.8766 0.3403 -0.3403
vn -0.9326 0.3610 -0.0000
vn -0.8766 0.3403 0.3403
vn -0.5774 -0.5774 0.5774
vn -0.3036 -0.6737 0.6737
vn -0.0000 -0.7071 0.7071
vn 0.3036 -0.6737 0.6737
vn -0.6737 -0.3036 0.6737
vn -0.3403 -0.3403 0.8766
vn -0.0000 -0.3610 0.9326
vn 0.3403 -0.3403 0.8766
vn -0.7071 -0.0000 0.7071
vn -0.3610 -0.0000 0.9326
vn -0.0000 -0.0000 1.0000
vn 0.3610 -0.0000 0.9326
vn -0.6737 0.3036 0.6737
vn -0.3403 0.3403 0.8766
vn -0.0000 0.3610 0.9326
vn 0.3403 0.3403 0.8766
vn 0.5774 -0.5774 0.5774
vn 0.6737 -0.6737 0.3036
vn 0.7071 -0.7071 -0.0000
vn 0.6737 -0.6737 -0.3036
vn 0.6737 -0.3036 0.6737
vn 0.8766 -0.3403 0.3403
vn 0.9326 -0.3610 -0.0000
vn 0.8766 -0.3403 -0.3403
vn 0.7071 -0.0000 0.7071
vn 0.9326 -0.0000 0.3610
vn 1.0000 -0.0000 -0.0000
vn 0.9326 -0.0000 -0.3610
vn 0.6737 0.3036 0.6737
vn 0.8766 0.3403 0.3403
vn 0.9326 0.3610 -0.0000
vn 0.8766 0.3403 -0.3403
vn 0.3403 -0.8766 0.3403
vn -0.0000 -0.9326 0.3610
vn -0.3403 -0.8766 0.3403
vn 0.3610 -0.9326 -0.0000
vn -0.0000 -1.0000 -0.0000
vn -0.3610 -0.9326 -0.0000
vn 0.3403 -0.8766 -0.3403
vn -0.0000 -0.9326 -0.3610
vn -0.3403 -0.8766 -0.3403
vn 0.5774 0.5774 -0.5774
vn 0.3036 0.6737 -0.6737
vn -0.0000 0.7071 -0.7071
vn -0.3036 0.6737 -0.6737
vn -0.5774 0.5774 -0.5774
vn 0.6737 0.6737 -0.3036
vn 0.3403 0.8766 -0.3403
vn -0.0000 0.9326 -0.3610
vn -0.3403 0.8766 -0.3403
vn -0.6737 0.6737 -0.3036
vn 0.7071 0.7071 -0.0000
vn 0.3610 0.9326 -0.0000
vn -0.0000 1.0000 -0.0000
vn -0.3610 0.9326 -0.0000
vn -0.7071 0.7071 -0.0000
vn 0.6737 0.6737 0.3036
vn 0.3403 0.8766 0.3403
vn -0.0000 0.9326 0.3610
vn -0.3403 0.8766 0.3403
vn -0.6737 0.6737 0.3036
vn 0.5774 0.5774 0.5774
vn 0.3036 0.6737 0.6737
vn -0.0000 0.7071 0.7071
vn -0.3036 0.6737 0.6737
vn -0.5774 0.5774 0.5774
s 1
f 1//1 2//2 6//6 5//5
f 2//2 3//3 7//7 6//6
f 3//3 4//4 8//8 7//7
f 4//4 17//17 21//21 8//8
f 5//5 6//6 10//10 9//9
f 6//6 7//7 11//11 10//10
f 7//7 8//8 12//12 11//11
f 8//8 21//21 25//25 12//12
f 9//9 10//10 14//14 13//13
f 10//10 11//11 15//15 14//14
f 11//11 12//12 16//16 15//15
f 12//12 25//25 29//29 16//16
f 13//13 14//14 75//75 74//74
f 14//14 15//15 76//76 75//75
f 15//15 16//16 77//77 76//76
f 16//16 29//29 78//78 77//77
f 17//17 18//18 22//22 21//21
f 18//18 19//19 23//23 22//22
f 19//19 20//20 24//24 23//23
f 20//20 33//33 37//37 24//24
f 21//21 22//22 26//26 25//25
f 22//22 23//23 27//27 26//26
f 23//23 24//24 28//28 27//27
f 24//24 37//37 41//41 28//28
f 25//25 26//26 30//30 29//29
f 26//26 27//27 31//31 30//30
f 27//27 28//28 32//32 31//31
f 28//28 41//41 45//45 32//32
f 29//29 30//30 83//83 78//78
f 30//30 31//31 88//88 83//83
f 31//31 32//32 93//93 88//88
f 32//32 45//45 98//98 93//93
f 33//33 34//34 38//38 37//37
f 34//34 35//35 39//39 38//38
f 35//35 36//36 40//40 39//39
f 36//36 49//49 53//53 40//40
f 37//37 38//38 42//42 41//41
f 38//38 39//39 43//43 42//42
f 39//39 40//40 44//44 43//43
f 40//40 53//53 57//57 44//44
f 41//41 42//42 46//46 45//45
f 42//42 43//43 47//47 46//46
f 43//43 44//44 48//48 47//47
f 44//44 57//57 61//61 48//48
f 45//45 46//46 97//97 98//98
f 46//46 47//47 96//96 97//97
f 47//47 48//48 95//95 96//96
f 48//48 61//61 94//94 95//95
f 49//49 50//50 54//54 53//53
f 50//50 51//51 55//55 54//54
f 51//51 52//52 56//56 55//55
f 52//52 1//1 5//5 56//56
f 53//53 54//54 58//58 57//57
f 54//54 55//55 59//59 58//58
f 55//55 56//56 60//60 59//59
f 56//56 5//5 9//9 60//60
f 57//57 58//58 62//62 61//61
f 58//58 59//59 63//63 62//62
f 59//59 60//60 64//64 63//63
f 60//60 9//9 13//13 64//64
f 61//61 62//62 89//89 94//94
f 62//62 63//63 84//84 89//89
f 63//63 64//64 79//79 84//84
f 64//64 13//13 74//74 79//79
f 49//49 36//36 65//65 50//50
f 36//36 35//35 66//66 65//65
f 35//35 34//34 67//67 66//66
f 34//34 33//33 20//20 67//67
f 50//50 65//65 68//68 51//51
f 65//65 66//66 69//69 68//68
f 66//66 67//67 70//70 69//69
f 67//67 20//20 19//19 70//70
f 51//51 68//68 71//71 52//52
f 68//68 69//69 72//72 71//71
f 69//69 70//70 73//73 72//72
f 70//70 19//19 18//18 73//73
f 52//52 71//71 2//2 1//1
f 71//71 72//72 3//3 2//2
f 72//72 73//73 4//4 3//3
f 73//73 18//18 17//17 4//4
f 74//74 75//75 80//80 79//79
f 75//75 76//76 81//81 80//80
f 76//76 77//77 82//82 81//81
f 77//77 78//78 83//83 82//82
f 79//79 80//80 85//85 84//84
f 80//80 81//81 86//86 85//85
f 81//81 82//82 87//87 86//86
f 82//82 83//83 88//88 87//87
f 84//84 85//85 90//90 89//89
f 85//85 86//86 91//91 90//90
f 86//86 87//87 92//92 91//91
f 87//87 88//88 93//93 92//92
f 89//89 90//90 95//95 94//94
f 90//90 91//91 96//96 95//95
f 91//91 92//92 97//97 96//96
f 92//92 93//93 98//98 97//97
