# Blender 5.0.0
# www.blender.org
mtllib grass.mtl
o Plane
v -0.042920 0.069377 0.700000
v -0.049565 0.099637 0.000000
v -0.042920 -0.064310 0.700000
v -0.049565 -0.053376 0.000000
v -0.032528 -0.017104 1.400000
v -0.032528 -0.128169 1.400000
v -0.019408 -0.160497 2.000000
v -0.019408 -0.213068 2.000000
v -0.000000 -0.345391 2.591475
v 0.042920 0.069377 0.700000
v 0.049565 0.099637 0.000000
v 0.042920 -0.064310 0.700000
v 0.049565 -0.053376 0.000000
v 0.032528 -0.017104 1.400000
v 0.032528 -0.128169 1.400000
v 0.019408 -0.160497 2.000000
v 0.019408 -0.213068 2.000000
vn 1.0000 -0.0000 -0.0095
vn 0.9999 -0.0000 -0.0148
vn 0.9998 -0.0000 -0.0219
vn 0.9998 -0.0000 -0.0178
vn -1.0000 -0.0000 -0.0095
vn -0.9999 -0.0000 -0.0148
vn -0.9998 -0.0000 -0.0219
vn -0.9998 -0.0000 -0.0178
vn -0.0000 0.9759 0.2183
vn -0.0000 -0.9991 -0.0432
vn -0.0000 -0.9726 -0.2324
vn -0.0000 -0.9925 -0.1226
vn -0.0000 -0.0000 1.0000
vn -0.0000 0.9901 0.1401
vn -0.0000 0.9959 0.0908
vn -0.0000 0.9999 0.0156
vn -0.0000 -0.9545 -0.2984
vt 0.000000 0.000000
vt 1.000000 1.000000
vt 1.000000 0.000000
vt 0.000000 1.000000
s 0
f 1/1/1 4/2/1 2/3/1
f 3/4/2 5/1/2 6/4/2
f 6/4/3 7/1/3 8/4/3
f 7/1/4 9/1/4 8/4/4
f 5/1/3 7/1/3 6/4/3
f 1/1/2 5/1/2 3/4/2
f 3/4/1 4/2/1 1/1/1
f 10/1/5 11/3/5 13/2/5
f 12/4/6 15/4/6 14/1/6
f 15/4/7 17/4/7 16/1/7
f 16/1/8 17/4/8 9/1/8
f 14/1/7 15/4/7 16/1/7
f 10/1/6 12/4/6 14/1/6
f 12/4/5 10/1/5 13/2/5
f 8/4/9 9/1/9 17/4/9
f 1/1/10 2/3/10 11/3/10 10/1/10
f 7/1/11 5/1/11 14/1/11 16/1/11
f 5/1/12 1/1/12 10/1/12 14/1/12
f 2/3/13 4/2/13 13/2/13 11/3/13
f 6/4/14 8/4/14 17/4/14 15/4/14
f 3/4/15 6/4/15 15/4/15 12/4/15
f 4/2/16 3/4/16 12/4/16 13/2/16
f 9/1/17 7/1/17 16/1/17
